<svg xmlns="http://www.w3.org/2000/svg" version="1.1" xmlns:xlink="http://www.w3.org/1999/xlink" xmlns:svgjs="http://svgjs.com/svgjs" width="3000" height="1920" preserveAspectRatio="none" viewBox="0 0 3000 1920"><g mask="url(&quot;#SvgjsMask1099&quot;)" fill="none"><rect width="3000" height="1920" x="0" y="0" fill="rgba(248, 248, 248, 1)"></rect><path d="M3150 1920L0 1920 L0 876.99Q-13.07 713.92, 150 700.86Q215.15 516.01, 400 581.16Q466.95 398.11, 650 465.05Q804.13 369.18, 900 523.31Q1066.58 439.88, 1150 606.46Q1297.64 504.1, 1400 651.74Q1601.44 703.18, 1550 904.62Q1408.22 612.84, 1700 471.06Q1878.15 399.22, 1950 577.37Q2197.53 574.9, 2200 822.44Q2284.03 756.47, 2350 840.49Q2399.14 739.63, 2500 788.77Q2616.76 655.52, 2750 772.28Q2928.78 701.07, 3000 879.85Q3040.2 770.05, 3150 810.25z" fill="rgba(44, 77, 110, 1)"></path><path d="M3050 1920L0 1920 L0 1250.57Q49.04 1149.61, 150 1198.65Q51.13 949.79, 300 850.92Q563.21 964.13, 450 1227.33Q418.58 1045.91, 600 1014.49Q662.21 926.7, 750 988.91Q736.12 825.03, 900 811.15Q968.32 729.47, 1050 797.8Q1196.84 694.64, 1300 841.48Q1383.64 775.13, 1450 858.77Q1637.11 895.88, 1600 1082.99Q1828.29 1061.28, 1850 1289.58Q1980.11 1169.69, 2100 1299.8Q2170.05 1119.86, 2350 1189.91Q2315.63 1005.54, 2500 971.17Q2537.99 759.16, 2750 797.15Q2919.3 816.45, 2900 985.75Q2981.64 917.39, 3050 999.03z" fill="rgba(86, 149, 212, 1)"></path><path d="M3250 1920L0 1920 L0 1655.01Q-31.66 1373.35, 250 1341.69Q287.37 1229.06, 400 1266.43Q432.26 1148.69, 550 1180.95Q704.4 1085.36, 800 1239.76Q953.96 1243.72, 950 1397.68Q1042.43 1340.12, 1100 1432.55Q1230.8 1313.35, 1350 1444.15Q1498.14 1442.3, 1500 1590.44Q1622.91 1563.35, 1650 1686.26Q1713.17 1599.43, 1800 1662.61Q1759.63 1472.23, 1950 1431.86Q1994.11 1325.97, 2100 1370.08Q2203.77 1223.85, 2350 1327.62Q2423.51 1151.13, 2600 1224.64Q2695.8 1170.44, 2750 1266.24Q3001.82 1268.07, 3000 1519.89Q3189.03 1458.92, 3250 1647.95z" fill="rgba(102, 178, 255, 1)"></path><path d="M3100 1920L0 1920 L0 1932.84Q157.82 1840.66, 250 1998.48Q261.49 1859.97, 400 1871.45Q534.13 1755.58, 650 1889.7Q689.06 1778.76, 800 1817.81Q756.87 1624.68, 950 1581.55Q1284.94 1666.49, 1200 2001.42Q1079.05 1730.47, 1350 1609.51Q1703.25 1712.76, 1600 2066.02Q1468.63 1784.65, 1750 1653.29Q2015.9 1769.19, 1900 2035.1Q1818.72 1803.82, 2050 1722.54Q2295.68 1818.22, 2200 2063.9Q2034.8 1748.7, 2350 1583.51Q2674.48 1657.99, 2600 1982.48Q2508.54 1641.02, 2850 1549.56Q3110.09 1559.64, 3100 1819.73z" fill="white"></path></g><defs><mask id="SvgjsMask1099"><rect width="3000" height="1920" fill="#ffffff"></rect></mask></defs></svg>